<svg width="76" height="18" viewBox="0 0 76 18" fill="none" xmlns="http://www.w3.org/2000/svg">
<path fill-rule="evenodd" clip-rule="evenodd" d="M2.57898 8.21582L3.38907 14.7319C3.42489 15.02 3.66972 15.2363 3.96003 15.2363H18.6509C18.9384 15.2363 19.1817 15.0241 19.2209 14.7394L20.1187 8.21582H2.57898ZM2.27635 6.37354C1.32944 6.37354 0.596612 7.20312 0.713433 8.14279L1.56086 14.9592C1.71136 16.1698 2.74014 17.0786 3.96003 17.0786H18.6509C19.8588 17.0786 20.8813 16.1871 21.046 14.9905L21.9856 8.16321C22.1158 7.21695 21.3805 6.37354 20.4253 6.37354H2.27635Z" fill="#0C8BFF"/>
<path fill-rule="evenodd" clip-rule="evenodd" d="M10.4636 2.35155C9.77802 2.73478 9.4873 3.20201 9.44971 3.54734L9.32711 4.6737L8.24949 4.32378C7.29285 4.01315 6.67799 4.03055 6.291 4.14691C5.92507 4.25695 5.66406 4.48466 5.46061 4.82558C5.00759 5.58476 4.92786 6.75045 4.92786 7.69597L3.08557 7.69597C3.08557 6.77887 3.13515 5.12737 3.87859 3.88153C4.27338 3.21995 4.8774 2.6482 5.76051 2.38266C6.39802 2.19096 7.12093 2.17697 7.93059 2.33734C8.28448 1.66381 8.88858 1.12138 9.56472 0.743439C10.5737 0.179432 11.8758 -0.105262 13.2351 0.03571C16.0318 0.325772 18.9285 2.384 20.257 7.14624L18.4825 7.64129C17.3207 3.47687 14.9622 2.06701 13.045 1.86817C12.0473 1.76469 11.1277 1.98034 10.4636 2.35155Z" fill="#0C8BFF"/>
<path d="M33.0052 11.83C33.9012 11.0553 34.6059 10.4207 35.1192 9.926C35.6419 9.422 36.0759 8.89933 36.4212 8.358C36.7665 7.81667 36.9392 7.27533 36.9392 6.734C36.9392 6.174 36.8039 5.73533 36.5332 5.418C36.2719 5.10067 35.8565 4.942 35.2872 4.942C34.7365 4.942 34.3072 5.11933 33.9992 5.474C33.7005 5.81933 33.5419 6.286 33.5232 6.874H31.9832C32.0112 5.81 32.3285 4.998 32.9352 4.438C33.5512 3.86867 34.3305 3.584 35.2732 3.584C36.2905 3.584 37.0839 3.864 37.6532 4.424C38.2319 4.984 38.5212 5.73067 38.5212 6.664C38.5212 7.336 38.3485 7.98467 38.0032 8.61C37.6672 9.226 37.2612 9.78133 36.7852 10.276C36.3185 10.7613 35.7212 11.326 34.9932 11.97L34.3632 12.53H38.8012V13.86H31.9972V12.698L33.0052 11.83ZM45.646 7.434C45.9167 7.06067 46.2853 6.75733 46.752 6.524C47.228 6.28133 47.7553 6.16 48.334 6.16C49.0153 6.16 49.6313 6.32333 50.182 6.65C50.7327 6.97667 51.1667 7.44333 51.484 8.05C51.8013 8.64733 51.96 9.33333 51.96 10.108C51.96 10.8827 51.8013 11.578 51.484 12.194C51.1667 12.8007 50.728 13.2767 50.168 13.622C49.6173 13.958 49.006 14.126 48.334 14.126C47.7367 14.126 47.2047 14.0093 46.738 13.776C46.2807 13.5427 45.9167 13.244 45.646 12.88V14H44.05V3.64H45.646V7.434ZM50.336 10.108C50.336 9.576 50.224 9.11867 50 8.736C49.7853 8.344 49.496 8.05 49.132 7.854C48.7773 7.64867 48.3947 7.546 47.984 7.546C47.5827 7.546 47.2 7.64867 46.836 7.854C46.4813 8.05933 46.192 8.358 45.968 8.75C45.7533 9.142 45.646 9.604 45.646 10.136C45.646 10.668 45.7533 11.1347 45.968 11.536C46.192 11.928 46.4813 12.2267 46.836 12.432C47.2 12.6373 47.5827 12.74 47.984 12.74C48.3947 12.74 48.7773 12.6373 49.132 12.432C49.496 12.2173 49.7853 11.9093 50 11.508C50.224 11.1067 50.336 10.64 50.336 10.108ZM56.8843 14.126C56.1563 14.126 55.4983 13.9627 54.9103 13.636C54.3223 13.3 53.8603 12.8333 53.5243 12.236C53.1883 11.6293 53.0203 10.9293 53.0203 10.136C53.0203 9.352 53.1929 8.65667 53.5383 8.05C53.8836 7.44333 54.3549 6.97667 54.9523 6.65C55.5496 6.32333 56.2169 6.16 56.9543 6.16C57.6916 6.16 58.3589 6.32333 58.9563 6.65C59.5536 6.97667 60.0249 7.44333 60.3703 8.05C60.7156 8.65667 60.8883 9.352 60.8883 10.136C60.8883 10.92 60.7109 11.6153 60.3563 12.222C60.0016 12.8287 59.5163 13.3 58.9003 13.636C58.2936 13.9627 57.6216 14.126 56.8843 14.126ZM56.8843 12.74C57.2949 12.74 57.6776 12.642 58.0323 12.446C58.3963 12.25 58.6903 11.956 58.9143 11.564C59.1383 11.172 59.2503 10.696 59.2503 10.136C59.2503 9.576 59.1429 9.10467 58.9283 8.722C58.7136 8.33 58.4289 8.036 58.0743 7.84C57.7196 7.644 57.3369 7.546 56.9263 7.546C56.5156 7.546 56.1329 7.644 55.7783 7.84C55.4329 8.036 55.1576 8.33 54.9523 8.722C54.7469 9.10467 54.6443 9.576 54.6443 10.136C54.6443 10.9667 54.8543 11.6107 55.2743 12.068C55.7036 12.516 56.2403 12.74 56.8843 12.74ZM64.328 7.588V11.858C64.328 12.1473 64.3933 12.3573 64.524 12.488C64.664 12.6093 64.8973 12.67 65.224 12.67H66.204V14H64.944C64.2253 14 63.6747 13.832 63.292 13.496C62.9093 13.16 62.718 12.614 62.718 11.858V7.588H61.808V6.286H62.718V4.368H64.328V6.286H66.204V7.588H64.328ZM71.665 6.16C72.253 6.16 72.7757 6.286 73.233 6.538C73.6997 6.79 74.0637 7.16333 74.325 7.658C74.5957 8.15267 74.731 8.75 74.731 9.45V14H73.149V9.688C73.149 8.99733 72.9763 8.47 72.631 8.106C72.2857 7.73267 71.8143 7.546 71.217 7.546C70.6197 7.546 70.1437 7.73267 69.789 8.106C69.4437 8.47 69.271 8.99733 69.271 9.688V14H67.675V3.64H69.271V7.182C69.5417 6.85533 69.8823 6.60333 70.293 6.426C70.713 6.24867 71.1703 6.16 71.665 6.16Z" fill="#444444"/>
</svg>
